<?xml version="1.0" encoding="UTF-8"?>
<svg width="256px" height="256px" viewBox="0 0 256 256" version="1.1" xmlns="http://www.w3.org/2000/svg" xmlns:xlink="http://www.w3.org/1999/xlink">
    <title>Artboard</title>
    <g id="Artboard" stroke="none" stroke-width="1" fill="none" fill-rule="evenodd">
        <rect fill="#453E7F" x="0" y="0" width="256" height="256"></rect>
        <path d="M227,80 C219.277122,84.4752239 176.545701,124.088817 172,130.821739 C172.570791,130.888311 173.062497,131.050149 173.522111,130.984725 C183.601509,129.558025 193.706123,128.394169 203.888676,128.063606 C205.434856,128.013103 206.26812,127.288849 206.895074,125.863297 C213.137102,111.707632 219.450194,97.5818105 225.727754,83.442215 C226.136936,82.5205416 226.431501,81.550661 227,80 M118.257366,142.734208 C126.684372,140.546072 135.118145,138.379574 143.573973,136.313989 C145.689954,135.797592 147.43477,134.926897 148.988802,133.380023 C161.713591,120.725996 174.441849,108.0766 187.257985,95.5140414 C196.927899,86.0348097 206.811725,76.7790409 217.615944,68.5711169 C221.464022,65.6475723 225.42079,62.8814938 229.911756,60.9930576 C231.960673,60.131625 234.053528,59.5283907 236.323293,59.6823833 C241.048982,60.0042627 244.776808,63.3330512 244.975687,68.0593519 C245.095939,70.9458457 244.768714,73.9597018 244.02523,76.7524106 C241.965907,84.4856204 238.488993,91.6920133 234.995891,98.8567239 C230.951246,107.153802 226.718129,115.358252 222.575201,123.6067 C222.027127,124.697385 221.527617,125.813542 220.824603,127.302524 C222.416792,127.463464 220.873739,127.314628 224.65765,127.686927 C228.441561,128.059225 229.157657,130.306375 224.999907,131.294755 C222.443497,131.902464 222.554963,131.792468 220.415947,132.248787 C218.989936,132.553001 218.11513,132.705107 217.791529,132.705107 C217.18274,133.920877 216.737245,134.809291 216.455046,135.370349 C211.036567,146.143158 205.482011,156.848272 199.973524,167.576812 C195.7115,175.876205 191.452378,184.17594 187.183983,192.471519 C185.140069,196.443843 181.259787,197.603877 183.315092,190.638659 C188.451044,173.233444 194.715458,156.226448 201.621213,139.451734 C202.757795,136.690873 203.793851,135.370349 199.881022,136.266517 C185.983427,139.449528 172.091146,142.667054 158.186957,145.827956 C156.055945,146.31309 154.360848,147.353988 152.781379,148.830233 C146.877446,154.347338 140.971202,159.865601 134.928517,165.228714 C131.085064,168.638551 127.028856,171.811031 123.003868,175.010142 C121.366585,176.312711 119.589393,177.450867 117.817982,178.571656 C116.941527,179.127419 115.965632,179.575503 114.977018,179.896224 C112.329152,180.756499 109.787663,180.223893 108.641796,178.548499 C107.122452,176.330079 107.652026,174.039872 109.009491,172.070387 C110.24786,170.275736 111.820391,168.680233 113.404486,167.163463 C116.814337,163.897198 120.333981,160.744587 123.794759,157.531397 C127.628727,153.971716 128.772813,152.908821 127.227019,154.342712 C127.760076,154.176307 126.32191,154.628634 122.912523,155.699695 C109.502109,159.912582 96.0916036,164.13224 82.7088945,168.439403 C78.2167721,169.885544 73.8368083,171.683669 69.3400608,173.114758 C65.0815056,174.471746 61.8161894,176.919419 59.036508,180.440409 C50.977282,190.652553 42.7041454,200.695652 34.5050103,210.797802 C33.7788705,211.692812 33.0203552,212.565823 32.2179014,213.39252 C31.5542004,214.076803 30.6060562,214.233111 29.958543,213.602089 C29.5388158,213.193372 29.3480306,212.264784 29.4717519,211.654603 C29.6544431,210.759593 30.1504844,209.908581 30.6153064,209.095778 C34.2540989,202.723029 37.9364793,196.374486 41.5536533,189.989111 C42.698364,187.96836 43.8820388,185.589554 45.1046776,182.852692 C44.2420352,183.045328 43.4063987,183.314165 42.5977682,183.659202 C36.2281795,186.377067 29.8764476,189.139257 23.5007558,191.842812 C22.1560097,192.413627 20.7580751,192.921918 19.3358588,193.239166 C16.6243975,193.845874 14.0967837,192.723928 12.842227,190.534453 C11.5367943,188.253509 11.7056102,185.558059 13.6527747,183.553839 C14.8680181,182.302214 16.3688611,181.186057 17.9483306,180.453145 C27.9385333,175.81484 37.9715181,171.269162 48.0230033,166.765167 C50.8917177,165.479965 53.83559,164.338335 56.8049002,163.300911 C59.0839152,162.505475 60.7454802,161.162381 62.1549775,159.189423 C70.5171472,147.490613 79.3082943,136.115998 88.6116706,125.146627 C102.328543,108.973925 116.677896,93.3731962 131.372976,78.0885574 C132.680721,76.7292538 134.068249,75.4359472 135.510122,74.2202157 C136.380796,73.4849876 137.370566,72.8296505 138.406587,72.3630412 C140.942295,71.217938 143.654912,71.7910685 145.329196,73.6806625 C146.884384,75.4347893 147.227797,78.1510807 145.846051,80.4378137 C144.770716,82.2197286 143.423658,83.8650185 142.034973,85.4257861 C136.037383,92.170201 129.955384,98.8381985 123.952013,105.576824 C113.692398,117.096169 103.467472,128.647933 93.2332956,140.190435 C92.8205059,140.654729 91.0503168,143.247724 94.3999755,140.625783 C108.202762,129.821668 121.967847,118.9765 135.778378,108.186594 C151.490978,95.9088646 167.28336,83.7341826 182.938147,71.3846669 C188.207285,67.229181 193.168819,62.6846387 198.248364,58.2918181 C200.818552,56.0691036 200.818552,55.3111784 197.218124,55.4956358 C188.904288,55.921571 180.774759,57.5264862 172.705127,59.4438684 C153.741086,63.9501796 135.619968,70.8370088 117.908171,78.8851509 C94.3086299,89.6090601 72.2342133,102.897584 51.3253203,118.181065 C46.5834428,121.647636 41.675062,124.890744 36.7585872,128.107222 C34.5709179,129.538312 32.1982447,130.692678 29.8625723,131.879463 C28.9410224,132.347231 27.911939,132.702687 26.8932621,132.860153 C24.9761607,133.15656 23.0521217,133.100984 21.7779083,131.293597 C20.5025387,129.486209 20.4736318,127.437991 21.5316221,125.631762 C22.465891,124.037417 23.6973222,122.503279 25.1149135,121.325757 C28.5837339,118.44621 32.2294641,115.77739 35.8185369,113.042573 C48.5930461,103.306301 61.4959016,93.7437048 75.3041193,85.4952565 C103.275531,68.7864751 132.680721,55.3323804 164.231955,46.8500485 C175.189958,43.903347 186.287871,41.660612 197.663289,41.0770609 C201.770373,40.8663341 205.84508,41.0353787 209.821505,42.2476366 C217.455222,44.5772096 220.580629,51.7685506 216.621549,58.6762208 C214.977328,61.5441892 212.706407,64.1296447 210.389235,66.5228989 C203.510564,73.6262441 195.709187,79.6944807 188.014187,85.8646073 C162.69758,106.165007 136.201541,124.87999 109.563346,143.366389 C104.733343,146.718318 106.71435,145.73144 118.257366,142.734208 Z" id="Fill-1" fill="#FFFFFF"></path>
    </g>
</svg>