<?xml version="1.0" encoding="UTF-8"?>
<svg width="813px" height="275px" viewBox="0 0 813 275" version="1.1" xmlns="http://www.w3.org/2000/svg" xmlns:xlink="http://www.w3.org/1999/xlink">
    <title>Group 11 Copy 4</title>
    <g id="portfolio" stroke="none" stroke-width="1" fill="none" fill-rule="evenodd">
        <g id="Artboard" transform="translate(-106.000000, -573.000000)" fill="#4F2B76">
            <g id="Group" transform="translate(106.000000, 177.000000)">
                <g id="Group-11-Copy-4" transform="translate(-0.000000, 396.000000)">
                    <path d="M332.629384,63.0444299 C320.62527,70.0117657 254.205359,131.684928 247.139715,142.167204 C248.026929,142.270847 248.791216,142.522808 249.505619,142.420951 C265.172608,140.199767 280.878792,138.387795 296.706121,137.873152 C299.109438,137.794526 300.404628,136.666958 301.379138,134.44756 C311.081483,112.409049 320.894285,90.4169998 330.651858,68.4035066 C331.287873,66.9685821 331.745733,65.4586055 332.629384,63.0444299 M163.718431,161.1804 C176.70253,157.803335 189.697057,154.459664 202.725564,151.271737 C205.985808,150.474755 208.674174,149.130966 211.068583,146.743594 C230.674589,127.213968 250.28594,107.691489 270.032689,88.3030325 C284.931828,73.6732356 300.160555,59.3883208 316.807399,46.7206 C322.736412,42.2085397 328.832891,37.9395053 335.752448,35.0249824 C338.909363,33.6954882 342.133976,32.7644849 345.631167,33.0021498 C352.91238,33.4989232 358.656112,38.6364176 358.962539,45.9307661 C359.147821,50.3856438 358.643641,55.0370865 357.498101,59.3472209 C354.325153,71.2822904 348.968019,82.4042955 343.585943,93.4619703 C337.354066,106.267287 330.831795,118.929647 324.448486,131.659911 C323.604029,133.343222 322.834397,135.065846 321.751212,137.36387 C324.204413,137.612257 321.826919,137.382551 327.657065,137.957139 C333.487211,138.531726 334.590553,141.99987 328.184405,143.525289 C324.245559,144.463199 324.417304,144.293436 321.121566,144.997698 C318.924408,145.467207 317.576531,145.701961 317.077936,145.701961 C316.139929,147.578322 315.453524,148.949459 315.018718,149.815369 C306.670075,166.441612 298.111767,182.963376 289.624442,199.521297 C283.057633,212.330187 276.495296,225.139604 269.918669,237.942607 C266.769462,244.073305 260.79083,245.863647 263.957588,235.113858 C271.870922,208.251475 281.522959,182.003684 292.163157,156.114384 C293.914371,151.853402 295.510698,149.815369 289.481918,151.198472 C268.068885,156.110979 246.66404,161.076757 225.240848,165.955143 C221.957443,166.703877 219.345685,168.310349 216.912081,170.588716 C207.815465,179.103554 198.715285,187.62018 189.404882,195.897353 C183.482995,201.159934 177.233302,206.05619 171.031711,210.993545 C168.50903,213.003869 165.770781,214.760446 163.04144,216.490218 C161.691022,217.347956 160.18739,218.039507 158.664161,218.534494 C154.584401,219.862201 150.668545,219.040202 148.903024,216.454479 C146.562062,213.030674 147.378014,209.496077 149.469559,206.456468 C151.377603,203.686688 153.800517,201.224265 156.241247,198.883354 C161.495051,193.842356 166.918023,188.976764 172.250295,184.017679 C178.157566,178.523837 179.920343,176.883415 177.538626,179.096415 C178.359945,178.839593 176.144059,179.537693 170.890969,181.190717 C150.228571,187.692687 129.566033,194.205107 108.946322,200.852578 C102.024984,203.084485 95.2764557,205.859625 88.3479907,208.068301 C81.7865259,210.162612 76.7554163,213.940233 72.4725595,219.374362 C60.0551255,235.135301 47.3081038,250.635345 34.6751017,266.226524 C33.5562855,267.60784 32.3875858,268.955203 31.1511871,270.231089 C30.1285749,271.287179 28.6677003,271.528418 27.6700298,270.554528 C27.0233256,269.923733 26.7293691,268.490595 26.9199954,267.54887 C27.201481,266.167554 27.9657678,264.854143 28.6819527,263.599701 C34.2885044,253.764303 39.9622149,243.966262 45.5354572,234.111377 C47.299196,230.992645 49.1229696,227.321309 51.006778,223.097366 C49.6776422,223.394671 48.3901165,223.809581 47.1442008,224.342096 C37.3301135,228.53672 27.5435395,232.799752 17.7200486,236.972291 C15.6481008,237.853259 13.4942016,238.637732 11.3028897,239.127358 C7.12514463,240.063722 3.23066674,238.332163 1.29768023,234.953032 C-0.71369467,231.432732 -0.45358773,227.272701 2.54654986,224.179483 C4.41896352,222.247785 6.73142111,220.525161 9.1650244,219.394019 C24.5576543,212.235479 40.0162017,205.219895 55.503254,198.268642 C59.9232904,196.285122 64.4591279,194.523185 69.0341596,192.922074 C72.5456033,191.694436 75.1056969,189.621569 77.2774117,186.576598 C90.161613,168.52121 103.706771,150.966168 118.041158,134.03656 C139.175737,109.076379 161.284827,84.9989535 183.926602,61.4093664 C185.94154,59.3114818 188.079405,57.3154535 190.301004,55.4391513 C191.642514,54.3044351 193.167525,53.2930188 194.763797,52.5728762 C198.670746,50.8055781 202.850273,51.6901206 205.429963,54.6064304 C207.826154,57.3136666 208.355276,61.505862 206.226318,65.0350972 C204.569473,67.7852203 202.493962,70.3244827 200.354315,72.7332975 C191.113392,83.1423078 181.742416,93.433379 172.492586,103.833455 C156.684854,121.611865 140.930568,139.440311 125.162031,157.254461 C124.526016,157.97103 121.798557,161.972936 126.959619,157.926356 C148.226573,141.251797 169.435439,124.51388 190.714324,107.86125 C214.923867,88.912384 239.256337,70.1225569 263.376801,51.0628996 C271.495345,44.6495196 279.139941,37.6356885 286.966363,30.8560174 C290.926439,27.4255851 290.926439,26.2558393 285.378998,26.5405222 C272.569268,27.1978903 260.043513,29.6748405 247.610045,32.6340372 C218.390772,39.5888643 190.470251,50.21767 163.180401,62.6387912 C126.818876,79.1895643 92.8072213,99.6984417 60.5913733,123.286242 C53.2852188,128.636384 45.7225204,133.641644 38.1473512,138.605803 C34.7766503,140.814479 31.1209007,142.596073 27.5221608,144.427701 C26.102262,145.149631 24.5166786,145.698226 22.9471291,145.941252 C19.993312,146.398712 17.0288055,146.312938 15.0655325,143.523502 C13.100478,140.734066 13.0559392,137.572944 14.6860614,134.785294 C16.1255574,132.324658 18.0229128,129.956943 20.2070985,128.13961 C25.5517617,123.695454 31.1690026,119.576524 36.6989474,115.355738 C56.3815603,100.329237 76.2619257,85.570779 97.5372482,72.8405147 C140.63483,47.0529735 185.94154,26.2885616 234.554815,13.1973325 C251.438605,8.64953315 268.537964,5.18820217 286.064896,4.28757708 C292.392978,3.96235135 298.671175,4.22324671 304.797941,6.09418814 C316.559763,9.6895407 321.375304,20.7883155 315.275262,31.4492863 C312.741892,35.8755728 309.242919,39.8658423 305.672684,43.5594774 C295.074217,54.5224436 283.05407,63.8878724 271.197825,73.4105532 C232.190692,104.741227 191.366322,133.625045 150.322923,162.156077 C142.880988,167.329286 145.93327,165.806185 163.718431,161.1804 Z" id="Fill-1"></path>
                    <path d="M393.05998,90.8709787 C386.350358,101.354018 379.388521,111.689134 373.020504,122.377368 C357.123625,149.064063 342.860622,176.644417 329.292505,204.567251 C320.596078,222.464435 316.160053,232.930642 307.669304,250.926592 C297.581596,272.307262 261.591283,296.036597 296.716554,222.749022 C309.222783,196.655238 322.003318,170.683122 335.321987,144.998895 C348.12751,120.308217 361.900529,96.1223409 378.349754,73.6060553 C381.767173,68.9290608 385.699522,64.5927628 389.699577,60.390246 C391.424323,58.5743878 393.783375,57.1741434 396.099666,56.1377842 C403.853893,52.6666053 411.987636,55.9451392 415.453163,63.7597512 C417.320449,67.9765379 417.849632,72.4680223 417.833597,77.029073 C417.785489,88.7233428 415.932457,100.212481 413.772961,111.65881 C412.365369,119.120239 410.861099,126.563421 409.437935,134.021693 C408.377647,139.578267 409.521817,138.827282 411.53685,135.229292 C422.611996,115.453811 434.956328,96.4880098 448.230454,78.1278634 C460.939761,60.5543511 474.351082,43.5195315 489.661762,28.1221951 C496.368313,21.3778335 503.782224,15.3219997 511.033995,9.13773589 C513.220217,7.27193262 515.882169,5.92341705 518.430088,4.53030772 C521.457302,2.87677078 524.730398,2.06516419 528.233342,2.27743053 C535.474422,2.71444946 540.858906,8.18342925 541.177842,15.470051 C541.359581,19.606569 540.360013,23.5361719 538.720792,27.2463734 C534.08643,37.7437466 529.509083,48.275011 524.529059,58.6100628 C504.938588,99.2617422 486.338776,140.336171 470.682435,182.691332 C460.813256,209.390513 456.391345,222.926484 448.317517,250.214804 C440.570102,276.3999 425.485117,275.132485 432.119668,244.895392 C439.027633,213.412209 444.579624,193.920043 455.687127,163.69617 C469.923404,124.956672 486.797328,87.3581825 504.578672,50.1479492 C508.664268,41.598203 506.463982,42.1188284 504.36486,44.3882181 C491.960513,57.7987337 479.124422,70.8465929 467.302432,84.7527137 C447.72087,107.784503 428.794995,131.376391 409.591166,154.731039 C407.948382,156.72884 408.123544,156.714249 404.611142,160.681632 C401.098739,164.649014 397.038685,163.124943 396.826624,158.148706 C396.614564,153.172468 396.105011,137.471467 396.165591,131.007154 C396.283187,118.722463 396.567356,106.44135 396.709028,94.1566476 C396.783369,87.710374 396.738226,85.1241273 393.05998,90.8709787 Z" id="Fill-3" transform="translate(411.429566, 137.301189) rotate(1.000000) translate(-411.429566, -137.301189) "></path>
                    <path d="M502.765101,239.368725 C507.078597,235.473435 511.459953,231.593898 515.35333,227.296908 C526.995922,214.446897 537.033256,200.35391 546.688045,186.008055 C566.446309,156.648557 585.237485,126.68716 602.519933,95.8104487 C608.124036,85.7989791 613.118963,75.4896047 617.085239,64.7093609 C618.140738,61.840541 618.840655,58.5532076 614.49323,62.0934148 C607.471526,67.8113471 600.25684,73.3300518 593.587331,79.4345195 C582.491742,89.5884503 571.75546,100.132369 560.865444,110.507115 C560.046727,111.287091 559.236947,112.086655 558.350301,112.784715 C557.124012,113.751672 555.717177,114.182617 554.29604,113.285111 C552.7891,112.334181 552.889205,110.849022 553.386156,109.397697 C553.697197,108.491287 554.111918,107.599123 554.605294,106.776409 C566.092366,87.6313879 578.467871,69.1131966 594.297006,53.1735552 C598.726661,48.7162965 603.549586,44.5795758 608.565572,40.7865431 C611.609842,38.4857927 615.22078,36.7014646 618.840655,35.4299973 C630.225834,31.4250533 640.413326,37.8892359 641.786197,49.8203718 C642.738984,58.0760055 640.359698,65.8241208 637.572841,73.4297747 C631.328779,90.4788336 622.512371,106.270671 613.313418,121.850598 C594.091432,154.40123 574.177648,186.519135 551.92748,217.137635 C543.563333,228.64851 534.913171,239.974185 524.49508,249.750594 C520.15838,253.819645 515.296127,257.391863 510.376672,260.762854 C507.902643,262.459925 504.856585,263.526604 501.915995,264.326168 C491.227977,267.23594 481.179918,262.44924 476.55184,252.425305 C473.857937,246.589733 472.699577,240.349927 473.066034,234.028206 C473.503994,226.481317 474.081387,218.86854 475.543637,211.471236 C480.016195,188.882212 488.083601,167.425756 497.498853,146.475038 C510.382035,117.810039 525.991295,90.7067717 545.193618,65.7368632 C556.745043,50.7178781 569.109822,36.4022958 583.955781,24.4533523 C588.476603,20.8134655 593.353157,17.560005 598.301214,14.5077711 C601.016567,12.8338506 604.144855,11.6888177 607.226665,10.7735037 C611.100378,9.62490925 614.991968,10.084347 618.420571,12.3904397 C622.002907,14.8015976 622.306798,18.4201152 619.235713,21.3423531 C618.189972,22.3378016 616.985134,23.2068157 615.74812,23.96008 C601.60826,32.5683055 589.913828,43.9420614 579.091741,56.2453775 C556.303507,82.1501885 538.134413,111.069837 523.116846,142.010656 C513.083087,162.681794 504.722516,184.001131 498.937865,206.242905 C496.66941,214.974004 494.886775,223.870687 494.964046,232.984677 C495.049638,243.080029 496.66941,244.873422 502.765101,239.368725 Z" id="Fill-6"></path>
                    <path d="M639.080256,137.526851 C631.770947,151.038911 624.350625,164.491557 617.223154,178.098746 C602.222272,206.743395 587.380314,235.472449 572.459636,264.161097 C569.335171,270.168645 562.783134,274.238668 565.731903,263.240873 C572.904878,236.488389 582.745752,210.693582 593.656457,185.2715 C608.034533,151.770707 625.162593,119.703752 644.155501,88.6158719 C648.620432,81.3075808 653.430858,74.1935208 658.383675,67.2028285 C667.432241,54.4311612 679.759771,55.7161901 674.769364,79.736423 C671.615444,94.9171277 668.607332,110.137702 665.994758,125.419485 C663.569562,139.588439 661.47986,153.825161 659.679255,168.085067 C657.739455,183.470286 655.970971,198.89474 656.186901,214.452947 C656.2101,216.154291 655.547707,224.070244 661.028371,215.041462 C668.414616,202.873447 675.825815,190.725076 683.09248,178.487523 C701.423323,147.610082 720.191378,117.005498 740.155079,87.1445835 C753.830045,66.6945652 788.362802,23.8456031 799.3289,12.9309801 C801.61482,10.65579 821.233957,-1.0930977 808.146335,18.3809893 C798.933168,32.0899744 757.024379,101.176217 738.631078,130.493201 C722.04552,156.930025 706.230886,183.850146 689.852335,210.418941 C683.579661,220.593124 676.862635,230.508717 669.96537,240.272722 C667.788226,243.356186 664.65635,246.008072 661.46023,248.089277 C652.883709,253.673039 643.038376,250.940901 638.59486,241.697643 C636.874559,238.121966 635.766357,234.070127 635.291668,230.12529 C634.563574,224.051098 634.245925,217.87347 634.413672,211.756476 C634.974019,191.215506 637.320695,170.835039 640.540014,150.549092 C641.30023,145.7625 642.052204,140.975729 642.761772,136.182183 C642.985814,134.668645 644.512078,127.485533 639.080256,137.526851 Z" id="Fill-8"></path>
                </g>
            </g>
        </g>
    </g>
</svg>